<svg width="95.928467" height="24.433594" viewBox="0 0 95.9285 24.4336" fill="none" xmlns="http://www.w3.org/2000/svg" xmlns:xlink="http://www.w3.org/1999/xlink">
	<desc>
			Created with Pixso.
	</desc>
	<defs/>
	<path id="3legant." d="M1.05 2.2Q0.33 3.24 0.24 4.72L2.9 4.72Q2.97 4.2 3.21 3.76Q3.43 3.36 3.79 3.04Q3.81 3.02 3.83 2.99Q4.57 2.35 5.87 2.35Q7.24 2.35 7.98 3.03Q7.98 3.03 7.99 3.04Q8.21 3.24 8.36 3.48Q8.73 4.06 8.73 4.87Q8.73 5.69 8.34 6.25Q8.1 6.6 7.71 6.84Q6.69 7.46 4.75 7.48L4.1 7.48L4.1 9.74L4.72 9.74Q6.93 9.74 7.99 10.45Q8.23 10.6 8.41 10.81Q9.07 11.53 9.07 12.84Q9.07 13.74 8.67 14.4Q8.51 14.68 8.27 14.91Q8.19 14.99 8.11 15.07Q7.33 15.72 6.02 15.72Q4.64 15.72 3.78 15.05Q3.69 14.98 3.62 14.91Q3.28 14.61 3.06 14.23Q2.69 13.63 2.63 12.84L-3.44e-5 12.84Q0.08 14.65 0.98 15.85Q1.32 16.3 1.78 16.66Q1.92 16.78 2.07 16.88Q3.67 18 6.04 18Q7.82 18 9.09 17.36Q10.14 16.83 10.76 15.99Q10.89 15.81 11 15.62Q11.11 15.44 11.2 15.25Q11.66 14.28 11.66 13.1Q11.66 11.33 10.86 10.19Q10.59 9.79 10.23 9.48Q9.58 8.9 8.66 8.61L8.66 8.51Q8.85 8.45 9.03 8.37Q9.9 7.98 10.55 7.1Q10.72 6.88 10.85 6.65Q11.34 5.74 11.34 4.56Q11.34 3.58 10.99 2.75Q10.87 2.48 10.72 2.23Q10.64 2.09 10.54 1.96Q9.94 1.12 8.87 0.6Q7.65 0 5.97 0Q3.71 0 2.2 1.06Q2.07 1.15 1.95 1.24Q1.42 1.66 1.05 2.2ZM17.63 17.9L17.63 0.14L14.9 0.14L14.9 17.9L17.63 17.9ZM87.35 14.23L87.35 6.91L90.57 6.91L90.57 4.68L87.35 4.68L87.35 1.39L84.59 1.39L84.59 4.68L83.03 4.68L83.03 6.91L84.59 6.91L84.59 14.23Q84.59 16.14 85.55 17.01Q85.56 17.03 85.58 17.04Q86.56 17.9 88.41 17.9L90.57 17.9L90.57 15.62L88.89 15.62Q88.05 15.62 87.7 15.3Q87.35 14.97 87.35 14.23ZM33.25 12.31Q33.35 11.71 33.35 10.96Q33.35 9.1 32.58 7.65Q32.56 7.61 32.53 7.57Q32.11 6.8 31.51 6.21Q30.96 5.67 30.25 5.28Q30.11 5.2 29.97 5.13Q28.61 4.46 26.92 4.46Q25.07 4.46 23.62 5.22Q23.55 5.26 23.48 5.3Q22.82 5.67 22.3 6.17Q21.62 6.82 21.15 7.69Q20.32 9.24 20.32 11.28Q20.32 13.32 21.17 14.87Q21.66 15.75 22.36 16.41Q22.88 16.9 23.52 17.27Q23.73 17.39 23.95 17.49Q25.29 18.12 26.92 18.12Q29.05 18.12 30.55 17.14Q30.69 17.05 30.82 16.96Q31.69 16.31 32.26 15.47Q32.72 14.78 32.99 13.96L30.04 13.96Q29.64 14.78 28.99 15.23Q28.16 15.82 26.92 15.82Q25.95 15.82 25.16 15.43Q24.71 15.21 24.33 14.85Q24 14.56 23.76 14.2Q23.23 13.4 23.15 12.31L33.25 12.31ZM44.09 5.08Q42.91 4.46 41.37 4.46Q40.28 4.46 39.32 4.8Q38.74 5 38.21 5.32Q37.73 5.6 37.32 5.96Q36.51 6.68 35.96 7.7Q35.13 9.24 35.13 11.23Q35.13 13.16 35.91 14.7Q35.93 14.75 35.96 14.8Q36.53 15.89 37.4 16.65Q37.78 16.98 38.21 17.25Q38.78 17.59 39.38 17.8Q40.32 18.12 41.37 18.12Q42.85 18.12 44.01 17.52Q44.04 17.5 44.07 17.49Q45.26 16.85 45.95 15.91L45.95 18.12Q45.95 19.92 45.06 20.92Q45 20.98 44.93 21.05Q44.67 21.31 44.37 21.5Q43.49 22.06 42.26 22.06Q40.84 22.06 39.82 21.42L39.82 21.42Q39.1 20.97 38.74 20.33Q38.58 20.06 38.49 19.75L35.78 19.75Q35.9 20.83 36.4 21.68Q36.9 22.54 37.79 23.17Q39.57 24.43 42.26 24.43Q44.27 24.43 45.73 23.61Q46.57 23.14 47.19 22.45Q47.63 21.97 47.95 21.37Q47.97 21.32 48 21.26Q48.71 19.87 48.71 18.12L48.71 4.68L45.95 4.68L45.95 6.6Q45.28 5.68 44.09 5.08ZM52.23 7.7Q51.4 9.24 51.4 11.23Q51.4 13.16 52.18 14.7Q52.2 14.75 52.23 14.8Q52.82 15.93 53.73 16.7Q54.08 17 54.47 17.25Q55.09 17.62 55.75 17.84Q56.63 18.12 57.59 18.12Q59.13 18.12 60.33 17.5Q61.53 16.87 62.23 15.93L62.23 17.9L64.99 17.9L64.99 4.68L62.23 4.68L62.23 6.6Q61.53 5.68 60.36 5.08Q59.2 4.46 57.64 4.46Q56.56 4.46 55.59 4.8Q55.02 5 54.49 5.32Q54 5.6 53.59 5.96Q52.78 6.68 52.23 7.7ZM77.94 5.05Q76.74 4.46 75.26 4.46Q74.43 4.46 73.68 4.68Q73.35 4.78 73.04 4.92Q72.16 5.3 71.55 5.94Q71.43 6.06 71.32 6.19L71.32 4.68L68.58 4.68L68.58 17.9L71.32 17.9L71.32 10.51Q71.32 8.75 72.19 7.81Q72.21 7.8 72.22 7.79Q72.45 7.55 72.71 7.37Q73.51 6.84 74.65 6.84Q75.82 6.84 76.62 7.39Q76.87 7.56 77.08 7.79Q77.08 7.79 77.09 7.8Q77.97 8.74 77.97 10.51L77.97 17.9L80.68 17.9L80.68 10.1Q80.68 8.3 79.99 7.03Q79.55 6.23 78.9 5.68Q78.51 5.35 78.05 5.11Q77.99 5.08 77.94 5.05ZM30.07 8.46Q30.48 9.17 30.5 10.1L23.18 10.1Q23.32 8.93 23.95 8.12Q24.14 7.88 24.38 7.66Q24.8 7.29 25.29 7.07Q25.97 6.76 26.8 6.76Q27.94 6.76 28.81 7.25Q29.13 7.43 29.42 7.68Q29.82 8.02 30.07 8.46ZM45.39 8.9Q45.95 9.91 45.95 11.28Q45.95 12.65 45.39 13.66Q44.92 14.51 44.21 15.02Q44.06 15.12 43.91 15.21Q43.47 15.47 42.99 15.6Q42.49 15.74 41.95 15.74Q41.57 15.74 41.22 15.67Q40.58 15.54 39.99 15.2Q39.81 15.1 39.65 14.98Q38.96 14.47 38.5 13.63Q37.94 12.6 37.94 11.23Q37.94 9.86 38.5 8.87Q38.95 8.08 39.61 7.59Q39.79 7.46 39.98 7.35Q40.42 7.11 40.89 6.98Q41.4 6.84 41.95 6.84Q42.49 6.84 42.99 6.98Q43.47 7.11 43.91 7.37Q44.08 7.47 44.25 7.59Q44.93 8.09 45.39 8.9ZM61.66 8.9Q62.23 9.91 62.23 11.28Q62.23 12.65 61.66 13.66Q61.19 14.51 60.48 15.02Q60.34 15.12 60.18 15.21Q59.74 15.47 59.27 15.6Q58.76 15.74 58.22 15.74Q57.85 15.74 57.49 15.67Q56.85 15.54 56.26 15.2Q56.09 15.1 55.92 14.98Q55.23 14.47 54.77 13.63Q54.21 12.6 54.21 11.23Q54.21 9.86 54.77 8.87Q55.22 8.08 55.88 7.59Q56.06 7.46 56.25 7.35Q56.69 7.11 57.16 6.98Q57.67 6.84 58.22 6.84Q58.76 6.84 59.27 6.98Q59.74 7.11 60.18 7.37Q60.36 7.47 60.52 7.59Q61.2 8.09 61.66 8.9Z" fill="#FFFFFF" fill-opacity="1.000000" fill-rule="evenodd"/>
	<path id="3legant." d="M93.42 17.91Q93.77 18.07 94.19 18.07Q94.56 18.07 94.86 17.94Q95.16 17.82 95.41 17.57Q95.64 17.35 95.76 17.08Q95.92 16.74 95.92 16.32Q95.92 15.9 95.76 15.56Q95.64 15.29 95.41 15.07Q95.16 14.82 94.86 14.7Q94.56 14.57 94.19 14.57Q93.77 14.57 93.42 14.73Q93.16 14.86 92.95 15.07Q92.73 15.29 92.61 15.54Q92.44 15.89 92.44 16.32Q92.44 16.75 92.61 17.09Q92.73 17.35 92.95 17.57Q93.16 17.78 93.42 17.91Z" fill="#6C7275" fill-opacity="1.000000" fill-rule="evenodd"/>
</svg>
