<svg width="88.000000" height="16.000000" viewBox="0 0 88 16" fill="none" xmlns="http://www.w3.org/2000/svg" xmlns:xlink="http://www.w3.org/1999/xlink">
	<desc>
			Created with Pixso.
	</desc>
	<defs/>
	<rect id="Rating/Rating Group" rx="0.000000" width="87.000000" height="15.000000" transform="translate(0.500000 0.500000)" fill="#FFFFFF" fill-opacity="0"/>
	<rect id="Star Icon" rx="0.000000" width="15.000000" height="15.000000" transform="translate(72.500000 0.500000)" fill="#FFFFFF" fill-opacity="0"/>
	<path id="Rating/Star Fill" d="M79.53 1.1L78 4.8C77.92 4.97 77.76 5.09 77.57 5.11L73.58 5.43C73.14 5.46 72.96 6.02 73.3 6.31L76.34 8.91C76.48 9.03 76.54 9.22 76.5 9.41L75.57 13.3C75.47 13.73 75.94 14.07 76.32 13.84L79.73 11.75C79.89 11.66 80.1 11.66 80.26 11.75L83.67 13.84C84.05 14.07 84.52 13.73 84.42 13.3L83.49 9.41C83.45 9.22 83.51 9.03 83.65 8.91L86.69 6.31C87.03 6.02 86.85 5.46 86.41 5.43L82.42 5.11C82.23 5.09 82.07 4.97 81.99 4.8L80.46 1.1C80.29 0.69 79.7 0.69 79.53 1.1Z" fill="#343839" fill-opacity="1.000000" fill-rule="evenodd"/>
	<rect id="Star Icon" rx="0.000000" width="15.000000" height="15.000000" transform="translate(54.500000 0.500000)" fill="#FFFFFF" fill-opacity="0"/>
	<path id="Rating/Star Fill" d="M61.53 1.1L60 4.8C59.92 4.97 59.76 5.09 59.57 5.11L55.58 5.43C55.14 5.46 54.96 6.02 55.3 6.31L58.34 8.91C58.48 9.03 58.54 9.22 58.5 9.41L57.57 13.3C57.47 13.73 57.94 14.07 58.32 13.84L61.73 11.75C61.89 11.66 62.1 11.66 62.26 11.75L65.67 13.84C66.05 14.07 66.52 13.73 66.42 13.3L65.49 9.41C65.45 9.22 65.51 9.03 65.65 8.91L68.69 6.31C69.03 6.02 68.85 5.46 68.41 5.43L64.42 5.11C64.23 5.09 64.07 4.97 63.99 4.8L62.46 1.1C62.29 0.69 61.7 0.69 61.53 1.1Z" fill="#343839" fill-opacity="1.000000" fill-rule="evenodd"/>
	<rect id="Star Icon" rx="0.000000" width="15.000000" height="15.000000" transform="translate(36.500000 0.500000)" fill="#FFFFFF" fill-opacity="0"/>
	<path id="Rating/Star Fill" d="M43.53 1.1L42 4.8C41.92 4.97 41.76 5.09 41.57 5.11L37.58 5.43C37.14 5.46 36.96 6.02 37.3 6.31L40.34 8.91C40.48 9.03 40.54 9.22 40.5 9.41L39.57 13.3C39.47 13.73 39.94 14.07 40.32 13.84L43.73 11.75C43.89 11.66 44.1 11.66 44.26 11.75L47.67 13.84C48.05 14.07 48.52 13.73 48.42 13.3L47.49 9.41C47.45 9.22 47.51 9.03 47.65 8.91L50.69 6.31C51.03 6.02 50.85 5.46 50.41 5.43L46.42 5.11C46.23 5.09 46.07 4.97 45.99 4.8L44.46 1.1C44.29 0.69 43.7 0.69 43.53 1.1Z" fill="#343839" fill-opacity="1.000000" fill-rule="evenodd"/>
	<rect id="Star Icon" rx="0.000000" width="15.000000" height="15.000000" transform="translate(18.500000 0.500000)" fill="#FFFFFF" fill-opacity="0"/>
	<path id="Rating/Star Fill" d="M25.53 1.1L24 4.8C23.92 4.97 23.76 5.09 23.57 5.11L19.58 5.43C19.14 5.46 18.96 6.02 19.3 6.31L22.34 8.91C22.48 9.03 22.54 9.22 22.5 9.41L21.57 13.3C21.47 13.73 21.94 14.07 22.32 13.84L25.73 11.75C25.89 11.66 26.1 11.66 26.26 11.75L29.67 13.84C30.05 14.07 30.52 13.73 30.42 13.3L29.49 9.41C29.45 9.22 29.51 9.03 29.65 8.91L32.69 6.31C33.03 6.02 32.85 5.46 32.41 5.43L28.42 5.11C28.23 5.09 28.07 4.97 27.99 4.8L26.46 1.1C26.29 0.69 25.7 0.69 25.53 1.1Z" fill="#343839" fill-opacity="1.000000" fill-rule="evenodd"/>
	<rect id="Star Icon" rx="0.000000" width="15.000000" height="15.000000" transform="translate(0.500000 0.500000)" fill="#FFFFFF" fill-opacity="0"/>
	<path id="Rating/Star Fill" d="M7.53 1.1L6 4.8C5.92 4.97 5.76 5.09 5.57 5.11L1.58 5.43C1.14 5.46 0.96 6.02 1.3 6.31L4.34 8.91C4.48 9.03 4.54 9.22 4.5 9.41L3.57 13.3C3.47 13.73 3.94 14.07 4.32 13.84L7.73 11.75C7.89 11.66 8.1 11.66 8.26 11.75L11.67 13.84C12.05 14.07 12.52 13.73 12.42 13.3L11.49 9.41C11.45 9.22 11.51 9.03 11.65 8.91L14.69 6.31C15.03 6.02 14.85 5.46 14.41 5.43L10.42 5.11C10.23 5.09 10.07 4.97 9.99 4.8L8.46 1.1C8.29 0.69 7.7 0.69 7.53 1.1Z" fill="#343839" fill-opacity="1.000000" fill-rule="evenodd"/>
</svg>
