<svg width="16.000000" height="16.000000" viewBox="0 0 16 16" fill="none" xmlns="http://www.w3.org/2000/svg" xmlns:xlink="http://www.w3.org/1999/xlink">
	<desc>
			Created with Pixso.
	</desc>
	<defs/>
	<rect id="ticket-percent" rx="0.000000" width="15.000000" height="15.000000" transform="translate(0.500000 0.500000)" fill="#FFFFFF" fill-opacity="0"/>
	<path id="Vector" d="M1.33 11.33L1.33 10.66C1.33 10.29 1.64 10.01 1.98 9.89C2.77 9.61 3.33 8.87 3.33 8C3.33 7.12 2.77 6.38 1.98 6.1C1.64 5.98 1.33 5.7 1.33 5.33L1.33 4.66C1.33 3.19 2.52 2 4 2L12 2C13.47 2 14.66 3.19 14.66 4.66L14.66 5.33C14.66 5.7 14.36 5.98 14.01 6.1C13.22 6.38 12.66 7.12 12.66 8C12.66 8.87 13.22 9.61 14.01 9.89C14.36 10.01 14.66 10.29 14.66 10.66L14.66 11.33C14.66 12.8 13.47 14 12 14L4 14C2.52 14 1.33 12.8 1.33 11.33ZM6 6.66C5.63 6.66 5.33 6.36 5.33 6C5.33 5.63 5.63 5.33 6 5.33C6.36 5.33 6.66 5.63 6.66 6C6.66 6.36 6.36 6.66 6 6.66ZM10 10.66C9.63 10.66 9.33 10.36 9.33 10C9.33 9.63 9.63 9.33 10 9.33C10.36 9.33 10.66 9.63 10.66 10C10.66 10.36 10.36 10.66 10 10.66ZM10 6L6 10" stroke="#141718" stroke-opacity="1.000000" stroke-width="1.500000" stroke-linecap="round"/>
</svg>
